<?xml version="1.0" encoding="utf-8"?>
<svg width="56px" height="56px" viewBox="0 0 56 56" version="1.1" xmlns:xlink="http://www.w3.org/1999/xlink" xmlns="http://www.w3.org/2000/svg">
  <desc>Created with Lunacy</desc>
  <defs>
    <rect width="56" height="56" id="artboard_1" />
    <clipPath id="clip_1">
      <use xlink:href="#artboard_1" clip-rule="evenodd" />
    </clipPath>
  </defs>
  <g id="Icons/56/Alert_active" clip-path="url(#clip_1)">
    <use xlink:href="#artboard_1" stroke="none" fill="#FFFFFF" />
    <g id="Group" transform="translate(10 5)">
      <path d="M17.9991 0C16.0257 0 14.3991 1.64083 14.3991 3.63158L14.3991 5.33388C12.0648 5.88713 10.0257 6.97944 8.45539 8.57298C6.11164 10.9609 4.79914 14.3419 4.79914 18.2336L4.79914 27.6766C4.79914 29.8991 3.59445 32.7173 2.35226 34.8074L0.200701 38.0654C-0.0430492 38.4389 -0.0664864 38.9165 0.139764 39.309C0.350701 39.7015 0.758514 39.9474 1.19914 39.9474L11.9991 39.9474C11.9991 43.2716 14.7038 46 17.9991 46C21.2944 46 23.9991 43.2716 23.9991 39.9474L34.7991 39.9474C35.2398 39.9474 35.6476 39.7015 35.8585 39.309C36.0648 38.9165 36.0413 38.4389 35.7976 38.0654L33.6554 34.8215L33.6507 34.8168C32.3945 32.7031 31.1991 30.0646 31.1991 27.8421L31.1991 18.3991C31.1991 11.9019 27.3648 6.87068 21.5991 5.37644L21.5991 3.63158C21.5991 1.64083 19.9726 0 17.9991 0Z" id="Shape" fill="#1A5DC6" stroke="none" />
      <path d="M14.5547 0C21.1687 0 25.3547 4.44017 25.3547 11.1359L25.3547 20.5789C25.3547 23.6195 26.7984 26.5323 28.1484 28.8067C28.1625 28.8209 28.1719 28.8398 28.1813 28.854L29.1094 30.2632L0 30.2632L0.928124 28.854C0.9375 28.8398 0.946874 28.8209 0.960937 28.8067C2.325 26.5134 3.75469 23.4539 3.75469 20.4134L3.75469 10.9704C3.75469 7.62253 4.85156 4.91304 6.71719 3.01686C8.57813 1.12068 11.2406 0 14.5547 0Z" transform="translate(3.444451 7.263158)" id="Path" fill="#FFFFFF" stroke="none" />
      <path d="M0 0L7.2 0C7.2 2.00494 5.5875 3.63158 3.6 3.63158C1.6125 3.63158 0 2.00494 0 0Z" transform="translate(14.39914 39.94737)" id="Path" fill="#DFEBFF" stroke="none" />
      <path d="M1.2 0C1.86563 0 2.4 0.539063 2.4 1.21053L2.4 2.55818C2.13281 2.53454 1.87031 2.50617 1.59844 2.49671C1.47188 2.44942 1.33594 2.42578 1.2 2.42105C1.06875 2.42105 0.942187 2.4447 0.820313 2.49198C0.539063 2.49671 0.271876 2.52508 0 2.544L0 1.21053C0 0.539063 0.534376 0 1.2 0Z" transform="translate(16.79914 2.421053)" id="Path" fill="#DFEBFF" stroke="none" />
    </g>
  </g>
</svg>