<?xml version="1.0" encoding="utf-8"?>
<svg width="24px" height="24px" viewBox="0 0 24 24" version="1.1" xmlns:xlink="http://www.w3.org/1999/xlink" xmlns="http://www.w3.org/2000/svg">
  <desc>Created with Lunacy</desc>
  <defs>
    <rect width="24" height="24" id="artboard_1" />
    <clipPath id="clip_1">
      <use xlink:href="#artboard_1" clip-rule="evenodd" />
    </clipPath>
  </defs>
  <g id="Icons/Round/blue" clip-path="url(#clip_1)">
    <use xlink:href="#artboard_1" stroke="none" fill="#FFFFFF" />
    <path d="M11.999 0L12.001 0C18.6279 0 24 5.37214 24 11.999L24 12.001C24 18.6279 18.6279 24 12.001 24L11.999 24C5.37214 24 0 18.6279 0 12.001L0 11.999C0 5.37214 5.37214 0 11.999 0Z" id="Rectangle" fill="#DFEBFF" stroke="none" />
    <g id="Icons/property_blue" transform="translate(4 4)">
      <path d="M6.44754 0.22832C6.60014 0.0757203 6.80004 0 6.99989 0C7.19974 0 7.39963 0.0757203 7.55223 0.22832L9.51551 2.1916C9.74021 2.4163 9.57968 2.8 9.26258 2.8L7.69989 2.8L7.69989 4.2C7.70346 4.45245 7.57082 4.68726 7.35278 4.81452C7.13473 4.94179 6.86505 4.94179 6.647 4.81452C6.42895 4.68726 6.29632 4.45245 6.29989 4.2L6.29989 2.8L4.73719 2.8C4.42009 2.8 4.25956 2.4163 4.48426 2.1916L6.44754 0.22832ZM0 6.29998C0 5.91358 0.3136 5.59998 0.7 5.59998L13.3 5.59998C13.6864 5.59998 14 5.91358 14 6.29998L14 13.3C14 13.6864 13.6864 14 13.3 14L0.7 14C0.3136 14 0 13.6864 0 13.3L0 6.29998ZM2.03838 7L11.9614 7C12.0672 7.29814 12.3018 7.5327 12.5999 7.63848L12.5999 11.9615C12.3018 12.0673 12.0672 12.3019 11.9614 12.6L2.03838 12.6C1.9326 12.3019 1.69804 12.0673 1.3999 11.9615L1.3999 7.63848C1.69804 7.5327 1.9326 7.29814 2.03838 7ZM4.8999 9.80001C4.8999 8.64021 5.8401 7.70001 6.9999 7.70001C8.1597 7.70001 9.0999 8.64021 9.0999 9.80001C9.0999 10.9598 8.1597 11.9 6.9999 11.9C5.8401 11.9 4.8999 10.9598 4.8999 9.80001ZM3.4998 9.09998C3.1134 9.09998 2.7998 9.41288 2.7998 9.79998C2.7998 10.1871 3.1134 10.5 3.4998 10.5C3.8862 10.5 4.1998 10.1871 4.1998 9.79998C4.1998 9.41288 3.8862 9.09998 3.4998 9.09998ZM9.7998 9.79998C9.7998 9.41288 10.1134 9.09998 10.4998 9.09998C10.8862 9.09998 11.1998 9.41288 11.1998 9.79998C11.1998 10.1871 10.8862 10.5 10.4998 10.5C10.1134 10.5 9.7998 10.1871 9.7998 9.79998Z" transform="translate(1 1)" id="Shape" fill="#1A5DC6" fill-rule="evenodd" stroke="none" />
    </g>
  </g>
</svg>