<?xml version="1.0" encoding="UTF-8"?>
<svg width="14px" height="14px" viewBox="0 0 14 14" version="1.1" xmlns="http://www.w3.org/2000/svg" xmlns:xlink="http://www.w3.org/1999/xlink">
    <!-- Generator: sketchtool 55.1 (78136) - https://sketchapp.com -->
    <title>7BE67FDB-92DA-43AE-A098-D6415ED0DC17</title>
    <desc>Created with sketchtool.</desc>
    <g id="02-02-Listings" stroke="none" stroke-width="1" fill="none" fill-rule="evenodd">
        <g id="02-02-12-Tablular+Filters" transform="translate(-812.000000, -712.000000)" fill="#FFFFFF" fill-rule="nonzero">
            <g id="Bulk" transform="translate(510.000000, 695.000000)">
                <g id="Icons/Deactivate_white" transform="translate(301.000000, 16.000000)">
                    <path d="M14.6422222,2.73444444 L13.5611111,1.42777778 C13.3511111,1.16333333 13.0322222,1 12.6666667,1 L3.33333333,1 C2.96777778,1 2.64888889,1.16333333 2.43111111,1.42777778 L1.35777778,2.73444444 C1.13222222,2.99888889 1,3.34888889 1,3.72222222 L1,13.4444444 C1,14.3 1.7,15 2.55555556,15 L13.4444444,15 C14.3,15 15,14.3 15,13.4444444 L15,3.72222222 C15,3.34888889 14.8677778,2.99888889 14.6422222,2.73444444 Z M8,12.2777778 L3.72222222,8 L6.44444444,8 L6.44444444,6.44444444 L9.55555556,6.44444444 L9.55555556,8 L12.2777778,8 L8,12.2777778 Z M2.64888889,2.55555556 L3.27888889,1.77777778 L12.6122222,1.77777778 L13.3433333,2.55555556 L2.64888889,2.55555556 Z" id="inactivate_icon"></path>
                </g>
            </g>
        </g>
    </g>
</svg>