<?xml version="1.0" encoding="UTF-8"?>
<svg width="14px" height="14px" viewBox="0 0 14 14" version="1.1" xmlns="http://www.w3.org/2000/svg" xmlns:xlink="http://www.w3.org/1999/xlink">
    <!-- Generator: sketchtool 55.1 (78136) - https://sketchapp.com -->
    <title>515F7E01-9DD8-409B-AF1E-8CF0A8EC6C9B</title>
    <desc>Created with sketchtool.</desc>
    <g id="02-02-Listings" stroke="none" stroke-width="1" fill="none" fill-rule="evenodd">
        <g id="02-02-12-Tablular+Filters" transform="translate(-772.000000, -712.000000)" fill="#FFFFFF" fill-rule="nonzero">
            <g id="Bulk" transform="translate(510.000000, 695.000000)">
                <g id="Icons/Archive_white" transform="translate(261.000000, 16.000000)">
                    <path d="M1.7,5.2 C1.31340068,5.2 1,4.88659932 1,4.5 L1,1.7 C1,1.31340068 1.31340068,1 1.7,1 L14.3,1 C14.6865993,1 15,1.31340068 15,1.7 L15,4.5 C15,4.88659932 14.6865993,5.2 14.3,5.2 L14.3,14.3 C14.3,14.6865993 13.9865993,15 13.6,15 L2.4,15 C2.01340068,15 1.7,14.6865993 1.7,14.3 L1.7,5.2 Z M2.4,2.4 L2.4,3.8 L13.6,3.8 L13.6,2.4 L2.4,2.4 Z M6,12 L10,12 C10.5522847,12 11,11.5522847 11,11 C11,10.4477153 10.5522847,10 10,10 L6,10 C5.44771525,10 5,10.4477153 5,11 C5,11.5522847 5.44771525,12 6,12 Z" id="Shape"></path>
                </g>
            </g>
        </g>
    </g>
</svg>