<?xml version="1.0" encoding="UTF-8"?>
<svg width="50px" height="50px" viewBox="0 0 50 50" version="1.1" xmlns="http://www.w3.org/2000/svg" xmlns:xlink="http://www.w3.org/1999/xlink">
    <!-- Generator: sketchtool 54.1 (76490) - https://sketchapp.com -->
    <title>CD168DDE-6A22-45D6-AC65-50B8ADC5555F</title>
    <desc>Created with sketchtool.</desc>
    <g id="01-10-Leases" stroke="none" stroke-width="1" fill="none" fill-rule="evenodd">
        <g id="01-10-05-Leases_details" transform="translate(-548.000000, -559.000000)" fill-rule="nonzero">
            <g id="Actions" transform="translate(472.000000, 512.000000)">
                <g id="Contact">
                    <g id="Icon/Envelope" transform="translate(72.000000, 44.000000)">
                        <g id="icons8-open-envelope-(1)" transform="translate(4.000000, 3.000000)">
                            <path d="M25,0 C23.953125,0 22.03125,0.183594 20.34375,1.59375 C19.523438,2.28125 14.597656,6.613281 9.78125,10.875 C4.964844,15.136719 0.34375,19.25 0.34375,19.25 C0.125,19.4375 0,19.710938 0,20 L0,49 C0,49.550781 0.449219,50 1,50 L49,50 C49.550781,50 50,49.550781 50,49 L50,20 C50,19.710938 49.875,19.4375 49.65625,19.25 C49.65625,19.25 45.078125,15.183594 40.28125,10.9375 C35.484375,6.691406 30.539063,2.332031 29.65625,1.59375 C27.96875,0.179688 26.046875,0 25,0 Z" id="Shape" fill="#2477D7"></path>
                            <path d="M10,19 L40,19 L40,26.84375 L33.65625,31.84375 C32.390625,30.855469 30.664063,29.496094 30.03125,29 L35,29 C35.359375,29.003906 35.695313,28.816406 35.878906,28.503906 C36.058594,28.191406 36.058594,27.808594 35.878906,27.496094 C35.695313,27.183594 35.359375,26.996094 35,27 L15,27 C14.96875,27 14.9375,27 14.90625,27 C14.875,27 14.84375,27 14.8125,27 C14.261719,27.050781 13.855469,27.542969 13.90625,28.09375 C13.957031,28.644531 14.449219,29.050781 15,29 L19.96875,29 C19.335938,29.496094 17.609375,30.855469 16.34375,31.84375 L10,26.84375 L10,19 Z" id="Path" fill="#FFFFFF"></path>
                            <path d="M14.71875,22 C14.167969,22.078125 13.78125,22.589844 13.859375,23.140625 C13.9375,23.691406 14.449219,24.078125 15,24 L35,24 C35.359375,24.003906 35.695313,23.816406 35.878906,23.503906 C36.058594,23.191406 36.058594,22.808594 35.878906,22.496094 C35.695313,22.183594 35.359375,21.996094 35,22 L15,22 C14.96875,22 14.9375,22 14.90625,22 C14.875,22 14.84375,22 14.8125,22 C14.78125,22 14.75,22 14.71875,22 Z" id="Path" fill="#2477D7"></path>
                            <path d="M2,23.03125 L14.71875,33.09375 C9.433594,37.226563 3.464844,41.882813 2,43.03125 L2,23.03125 Z" id="Path" fill="#DFEBFF"></path>
                            <path d="M48,23.03125 L48,43.03125 C46.535156,41.882813 40.566406,37.226563 35.28125,33.09375 L48,23.03125 Z" id="Path" fill="#DFEBFF"></path>
                            <path d="M25,29 C25.738281,29 27.085938,29.210938 28.375,30.21875 C29.851563,31.371094 47.496094,45.167969 48,45.5625 L48,48 L2,48 L2,45.5625 C2.503906,45.167969 20.148438,31.371094 21.625,30.21875 C22.914063,29.210938 24.261719,29 25,29 Z" id="Path" fill="#DFEBFF"></path>
                            <path d="M25,2 C25.824219,2 27.199219,2.140625 28.375,3.125 C29.089844,3.722656 34.140625,8.195313 38.9375,12.4375 C43.558594,16.523438 47.679688,20.152344 48,20.4375 L48,20.5 L42,25.25 L42,18 C42,17.449219 41.550781,17 41,17 L9,17 C8.96875,17 8.9375,17 8.90625,17 C8.875,17 8.84375,17 8.8125,17 C8.335938,17.089844 7.992188,17.511719 8,18 L8,25.25 L2,20.5 L2,20.4375 C2.324219,20.152344 6.484375,16.476563 11.125,12.375 C15.941406,8.117188 20.996094,3.648438 21.625,3.125 C22.800781,2.140625 24.179688,2 25,2 Z" id="Path" fill="#FFFFFF"></path>
                        </g>
                    </g>
                </g>
            </g>
        </g>
    </g>
</svg>