<?xml version="1.0" encoding="UTF-8"?>
<svg width="16px" height="9px" viewBox="0 0 16 9" version="1.1" xmlns="http://www.w3.org/2000/svg" xmlns:xlink="http://www.w3.org/1999/xlink">
    <!-- Generator: sketchtool 55.1 (78136) - https://sketchapp.com -->
    <title>CC305D66-656B-44BF-8B9C-0D7DF7075402</title>
    <desc>Created with sketchtool.</desc>
    <g id="01-03-Browse" stroke="none" stroke-width="1" fill="none" fill-rule="evenodd">
        <g id="01-03-01-Browsing-Half-Map-Half-List" transform="translate(-268.000000, -617.000000)" fill="#666B7C" fill-rule="nonzero">
            <g id="Left" transform="translate(0.000000, 120.000000)">
                <g id="Cards/Listing-Details" transform="translate(40.000000, 346.000000)">
                    <g id="Listing-details" transform="translate(224.000000, 144.000000)">
                        <g id="Icons/Beds_default">
                            <path d="M17.8089228,11.1544201 L9.55159652,11.1544201 L9.55159652,10.8467964 C9.55159652,9.72879157 8.56869895,8.81922141 7.36056315,8.81922141 L4.87641335,8.81922141 L4.87641335,7.405515 C4.87641335,7.18158962 4.68022822,7 4.43820667,7 C4.19618513,7 4,7.18158962 4,7.405515 L4,11.5599351 L4,13.4281022 L4,14.2391322 L4,14.9396594 L4,15.594485 C4,15.8184104 4.19618513,16 4.43820667,16 C4.68022822,16 4.87641335,15.8184104 4.87641335,15.594485 L4.87641335,15.3452149 L19.1235867,15.3452149 L19.1235867,15.594485 C19.1235867,15.8184104 19.3197718,16 19.5617933,16 C19.8038149,16 20,15.8184104 20,15.594485 L20,14.9396999 L20,14.2391727 L20,13.1820357 C20,12.0639903 19.0171024,11.1544201 17.8089228,11.1544201 Z M8.67518317,10.8467964 L8.67518317,11.1544201 L4.87641335,11.1544201 L4.87641335,9.63025142 L7.36056315,9.63025142 C8.08544463,9.63025142 8.67518317,10.1759935 8.67518317,10.8467964 Z M4.87641335,14.5341849 L4.87641335,14.2391727 L4.87641335,13.4281427 L4.87641335,11.9654907 L17.8089666,11.9654907 C18.5338481,11.9654907 19.1235867,12.5112328 19.1235867,13.1820357 L19.1235867,14.2391727 L19.1235867,14.5341849 L4.87641335,14.5341849 Z" id="Shape"></path>
                        </g>
                    </g>
                </g>
            </g>
        </g>
    </g>
</svg>