<?xml version="1.0" encoding="utf-8"?>
<svg width="40px" height="40px" viewBox="0 0 40 40" version="1.1" xmlns:xlink="http://www.w3.org/1999/xlink" xmlns="http://www.w3.org/2000/svg">
  <desc>Created with Lunacy</desc>
  <g id="Icon/red">
    <path d="M0 0L40 0L40 40L0 40L0 0Z" id="Rectangle" fill="#FFE7E1" stroke="none" />
    <g id="Icons/property_blue" transform="translate(12 12)">
      <path d="M12.9103 3.28079L12.6421 1.99995L10.6524 4.10526L8.89465 4.10526L8.89465 2.34684L11.0007 0.347579L9.71639 0.0834737C9.44818 0.0280526 9.17107 0 8.89465 0C6.6306 0 4.78939 1.859 4.78939 4.14358C4.78939 4.43095 4.82428 4.72174 4.89407 5.02279L0.642388 9.19853C-0.214243 10.0668 -0.214243 11.4783 0.643072 12.3466C1.06044 12.7674 1.6167 13 2.2106 13C2.80381 13 3.36076 12.7674 3.7706 12.3527L8.03255 8.16537C8.32607 8.21053 8.61207 8.21053 8.89465 8.21053C11.1963 8.21053 12.9999 6.42405 12.9999 4.14358C12.9999 3.85484 12.9698 3.56405 12.9103 3.28079Z" transform="translate(1 1)" id="Path" fill="#FF5722" stroke="none" />
    </g>
  </g>
</svg>