<?xml version="1.0" encoding="utf-8"?>
<svg width="16px" height="16px" viewBox="0 0 16 16" version="1.1" xmlns:xlink="http://www.w3.org/1999/xlink" xmlns="http://www.w3.org/2000/svg">
  <desc>Created with Lunacy</desc>
  <g id="Icons/Archive_white">
    <path d="M0.7 13.3L0.7 4.2C0.313401 4.2 0 3.8866 0 3.5L0 0.7C0 0.313401 0.313401 0 0.7 0L13.3 0C13.6866 0 14 0.313401 14 0.7L14 3.5C14 3.8866 13.6866 4.2 13.3 4.2L13.3 13.3C13.3 13.6866 12.9866 14 12.6 14L1.4 14C1.0134 14 0.7 13.6866 0.7 13.3ZM1.4 1.4L12.6 1.4L12.6 2.8L1.4 2.8L1.4 1.4ZM9 11L5 11C4.44772 11 4 10.5523 4 10C4 9.44771 4.44772 9 5 9L9 9C9.55228 9 10 9.44771 10 10C10 10.5523 9.55228 11 9 11Z" transform="translate(1 1)" id="Shape" fill="#FFFFFF" fill-opacity="0.3" fill-rule="evenodd" stroke="none" />
  </g>
</svg>