<?xml version="1.0" encoding="utf-8"?>
<svg width="16px" height="16px" viewBox="0 0 16 16" version="1.1" xmlns:xlink="http://www.w3.org/1999/xlink" xmlns="http://www.w3.org/2000/svg">
  <desc>Created with Lunacy</desc>
  <defs>
    <rect width="16" height="16" id="artboard_1" />
    <clipPath id="clip_1">
      <use xlink:href="#artboard_1" clip-rule="evenodd" />
    </clipPath>
  </defs>
  <g id="Icons/16/Verification/credit-check_green" clip-path="url(#clip_1)">
    <use xlink:href="#artboard_1" stroke="none" fill="none" />
    <g id="icons8-verified-account" transform="translate(1 1)">
      <path d="M4.77561 0.00272767C4.04024 0.0410527 3.34115 0.476781 2.99649 1.17031L2.37061 2.42812L1.14546 3.0707C0.222283 3.5544 -0.214997 4.64045 0.104094 5.65195L0.527567 6.99589L0.104094 8.3412C-0.215679 9.3527 0.220951 10.4381 1.14413 10.9225L2.36927 11.5637L2.99649 12.8215C3.45672 13.7469 4.54937 14.2126 5.50937 13.892L6.81974 13.4559L8.12877 13.8906C8.33809 13.9606 8.55509 13.9959 8.77464 13.9959C9.56691 13.9959 10.2823 13.546 10.643 12.8215L11.2689 11.5637L12.4953 10.9211C13.4178 10.4367 13.8552 9.35064 13.5354 8.33984L13.1119 6.99589L13.5354 5.65195C13.8552 4.63975 13.4185 3.5544 12.4953 3.0707L11.2702 2.42812L10.643 1.17031C10.1841 0.245606 9.08942 -0.218735 8.13011 0.101165L6.81974 0.535931L5.5107 0.102532C5.26917 0.0218573 5.02074 -0.0100473 4.77561 0.00272767Z" transform="translate(0.6802635 0.004108245)" id="Shape" fill="#4CAF50" stroke="none" />
      <path d="M3.46536 0.00159638C3.55147 -0.00270204 3.64012 0.00791829 3.72637 0.0371433L5.24448 0.541635C5.38152 0.587135 5.52957 0.587135 5.66662 0.541635L7.18606 0.035776C7.52288 -0.0776239 7.90341 0.0869855 8.06364 0.410385L8.79073 1.87054C8.85619 2.00144 8.95886 2.10822 9.08636 2.17542L10.5099 2.92191C10.8324 3.09131 10.9853 3.47142 10.8735 3.82562L10.3821 5.38421C10.3378 5.52421 10.3378 5.67488 10.3821 5.81488L10.45 6.03089L10.8735 7.37484C10.9853 7.72904 10.8331 8.10915 10.5099 8.27855L9.08636 9.02503C8.95886 9.09223 8.85619 9.19765 8.79073 9.32855L8.06364 10.7887C7.90341 11.1114 7.52837 11.2788 7.18473 11.1633L5.66529 10.6588C5.59711 10.6357 5.52579 10.6246 5.45488 10.6246C5.38397 10.6246 5.31266 10.635 5.24448 10.6588L3.72504 11.1647C3.38754 11.2781 3.00567 11.1128 2.84613 10.7901L2.12037 9.32992C2.05491 9.19902 1.9509 9.09223 1.8234 9.02503L0.401172 8.27855C0.0786717 8.10915 -0.0755257 7.72904 0.0362925 7.37484L0.527681 5.81625C0.571999 5.67624 0.571999 5.52558 0.527681 5.38558L0.0362925 3.82562C-0.0755257 3.47142 0.0779899 3.09131 0.401172 2.92191L1.8234 2.17542C1.95022 2.10822 2.05426 2.00281 2.11903 1.87191L2.84613 0.411753C2.9663 0.169203 3.20702 0.0144917 3.46536 0.00159638Z" transform="translate(2.045117 1.399771)" id="Path" fill="#4CAF50" stroke="none" />
      <path d="M6.13636 0L2.52752 3.70508L0.964133 2.1L0 3.08984L2.52752 5.68477L7.1005 0.989844L6.13636 0Z" transform="translate(4.29066 4.405078)" id="Path" fill="#FFFFFF" stroke="none" />
    </g>
  </g>
</svg>