<?xml version="1.0" encoding="UTF-8"?>
<svg width="4px" height="12px" viewBox="0 0 4 12" version="1.1" xmlns="http://www.w3.org/2000/svg" xmlns:xlink="http://www.w3.org/1999/xlink">
    <!-- Generator: sketchtool 54.1 (76490) - https://sketchapp.com -->
    <title>EDA8F1BA-28DB-4AAE-A44D-2BC75A83B118</title>
    <desc>Created with sketchtool.</desc>
    <g id="01-13-Tenant-profile" stroke="none" stroke-width="1" fill="none" fill-rule="evenodd">
        <g id="01-13-02-02-Tenant-Profile-Pending-report" transform="translate(-1310.000000, -130.000000)" fill="#3C404E" fill-rule="nonzero">
            <g id="Profile-details" transform="translate(944.000000, 0.000000)">
                <g id="Group-15" transform="translate(360.000000, 128.000000)">
                    <g id="icons/more">
                        <path d="M8,5 C8.825,5 9.5,4.325 9.5,3.5 C9.5,2.675 8.825,2 8,2 C7.175,2 6.5,2.675 6.5,3.5 C6.5,4.325 7.175,5 8,5 Z M8,6.5 C7.175,6.5 6.5,7.175 6.5,8 C6.5,8.825 7.175,9.5 8,9.5 C8.825,9.5 9.5,8.825 9.5,8 C9.5,7.175 8.825,6.5 8,6.5 Z M8,11 C7.175,11 6.5,11.675 6.5,12.5 C6.5,13.325 7.175,14 8,14 C8.825,14 9.5,13.325 9.5,12.5 C9.5,11.675 8.825,11 8,11 Z" id="Shape"></path>
                    </g>
                </g>
            </g>
        </g>
    </g>
</svg>