<?xml version="1.0" encoding="UTF-8"?>
<svg width="24px" height="32px" viewBox="0 0 24 32" version="1.1" xmlns="http://www.w3.org/2000/svg" xmlns:xlink="http://www.w3.org/1999/xlink">
    <!-- Generator: sketchtool 55.1 (78136) - https://sketchapp.com -->
    <title>E6A7C4A0-F41F-48A0-B425-3D41931CAF54</title>
    <desc>Created with sketchtool.</desc>
    <g id="02-01-Overview" stroke="none" stroke-width="1" fill="none" fill-rule="evenodd">
        <g id="02-01-01--Overview-Option" transform="translate(-940.000000, -585.000000)" fill-rule="nonzero">
            <g id="Docs" transform="translate(904.000000, 502.000000)">
                <g id="Doc-01" transform="translate(32.000000, 80.000000)">
                    <g id="Icons/Docs" transform="translate(0.000000, 3.000000)">
                        <g id="Group-10" transform="translate(4.000000, 0.000000)">
                            <path d="M2.82352941,0 L17.5574555,0 L24,6.57948863 L24,29.1764706 C24,30.7358628 22.7358628,32 21.1764706,32 L2.82352941,32 C1.26413718,32 6.35059681e-16,30.7358628 0,29.1764706 L0,2.82352941 C-1.90970471e-16,1.26413718 1.26413718,7.30544916e-16 2.82352941,0 Z" id="Rectangle-4" fill="#1A5DC6"></path>
                            <path d="M24,6.58823529 L20.361991,6.58823529 C18.8025987,6.58823529 17.5384615,5.32409812 17.5384615,3.76470588 L17.5384615,0 L24,6.58823529 Z" id="Rectangle-4" fill="#AAC6E9"></path>
                            <rect id="Rectangle-5" fill="#FFF8FA" x="6.46153846" y="13.1764706" width="11.0769231" height="1" rx="0.188235294"></rect>
                            <rect id="Rectangle-5" fill="#FFF8FA" x="6.46153846" y="16" width="11.0769231" height="1" rx="0.188235294"></rect>
                            <rect id="Rectangle-5" fill="#FFF8FA" x="6.46153846" y="18.8235294" width="7.38461538" height="1" rx="0.188235294"></rect>
                        </g>
                    </g>
                </g>
            </g>
        </g>
    </g>
</svg>