<?xml version="1.0" encoding="utf-8"?>
<svg width="40px" height="40px" viewBox="0 0 40 40" version="1.1" xmlns:xlink="http://www.w3.org/1999/xlink" xmlns="http://www.w3.org/2000/svg">
  <desc>Created with Lunacy</desc>
  <g id="Icon/green">
    <path d="M0 0L40 0L40 40L0 40L0 0Z" id="Rectangle" fill="#FFECCC" stroke="none" />
    <g id="Icons/property_blue" transform="translate(12 12)">
      <g id="Icons/search">
        <path d="M0 0L16 0L16 16L0 16L0 0Z" id="Bound" fill="none" stroke="none" />
      </g>
      <g id="icons8-person-at-home" transform="translate(1 2)">
        <path d="M13.8689 5.75116L13.8708 5.74611L7.45182 0.186947L7.45182 0.187579C7.336 0.072 7.17691 0 7 0C6.82309 0 6.664 0.072 6.54818 0.187579L6.54818 0.186947L0.129182 5.74611L0.131091 5.75116C0.0534545 5.80926 0 5.89642 0 6C0 6.17432 0.142545 6.31579 0.318182 6.31579L1.90909 6.31579L1.90909 11.3684C1.90909 11.7171 2.19418 12 2.54545 12L11.4545 12C11.8058 12 12.0909 11.7171 12.0909 11.3684L12.0909 6.31579L13.6818 6.31579C13.8575 6.31579 14 6.17432 14 6C14 5.89642 13.9465 5.80926 13.8689 5.75116ZM7.00002 4.42114C7.7032 4.42114 8.27275 4.98641 8.27275 5.6843C8.27275 6.38219 7.7032 6.94746 7.00002 6.94746C6.29684 6.94746 5.72729 6.38219 5.72729 5.6843C5.72729 4.98641 6.29684 4.42114 7.00002 4.42114ZM4.45459 9.15787C4.45459 9.33218 4.59714 9.47366 4.77277 9.47366L9.22732 9.47366C9.40295 9.47366 9.5455 9.33218 9.5455 9.15787L9.5455 9.03218C9.5455 8.19218 8.13277 7.73682 7.00004 7.73682C5.86732 7.73682 4.45459 8.19218 4.45459 9.03218L4.45459 9.15787Z" id="Shape" fill="#FFA000" fill-rule="evenodd" stroke="none" />
      </g>
    </g>
  </g>
</svg>