<?xml version="1.0" encoding="utf-8"?>
<svg width="40px" height="40px" viewBox="0 0 40 40" version="1.1" xmlns:xlink="http://www.w3.org/1999/xlink" xmlns="http://www.w3.org/2000/svg">
  <desc>Created with Lunacy</desc>
  <g id="Icon/green">
    <path d="M0 0L40 0L40 40L0 40L0 0Z" id="Rectangle" fill="#E5F2E7" stroke="none" />
    <g id="Icons/property_blue" transform="translate(12 12)">
      <path d="M0 1.375C0 0.615313 0.6265 0 1.4 0L12.6 0C13.3735 0 14 0.615313 14 1.375L14 2.0625L0 2.0625L0 1.375ZM0 9.625L0 4.125L14 4.125L14 9.625C14 10.3847 13.3735 11 12.6 11L1.4 11C0.6265 11 0 10.3847 0 9.625Z" transform="translate(1 3)" id="Shape" fill="#4CAF50" fill-rule="evenodd" stroke="none" />
    </g>
  </g>
</svg>