<?xml version="1.0" encoding="utf-8"?>
<svg width="16px" height="16px" viewBox="0 0 16 16" version="1.1" xmlns:xlink="http://www.w3.org/1999/xlink" xmlns="http://www.w3.org/2000/svg">
  <desc>Created with Lunacy</desc>
  <defs>
    <rect width="16" height="16" id="artboard_1" />
    <clipPath id="clip_1">
      <use xlink:href="#artboard_1" clip-rule="evenodd" />
    </clipPath>
  </defs>
  <g id="Icons/16/cash_blue" clip-path="url(#clip_1)">
    <use xlink:href="#artboard_1" stroke="none" fill="#FFFFFF" />
    <path d="M0.7 0C0.3136 0 0 0.323556 0 0.722222L0 7.94445C0 8.34311 0.3136 8.66667 0.7 8.66667L13.3 8.66667C13.6864 8.66667 14 8.34311 14 7.94445L14 0.722222C14 0.323556 13.6864 0 13.3 0L0.7 0ZM2.03848 1.44444L11.9615 1.44444C12.0673 1.75205 12.3019 1.99405 12.6 2.10319L12.6 6.56348C12.3019 6.67261 12.0673 6.91462 11.9615 7.22222L2.03848 7.22222C1.9327 6.91462 1.69814 6.67261 1.4 6.56348L1.4 2.10319C1.69814 1.99405 1.9327 1.75205 2.03848 1.44444ZM4.9 4.33333C4.9 3.13672 5.8402 2.16667 7 2.16667C8.1598 2.16667 9.1 3.13672 9.1 4.33333C9.1 5.52995 8.1598 6.5 7 6.5C5.8402 6.5 4.9 5.52995 4.9 4.33333ZM3.5 3.61111C3.1136 3.61111 2.8 3.93394 2.8 4.33333C2.8 4.73272 3.1136 5.05556 3.5 5.05556C3.8864 5.05556 4.2 4.73272 4.2 4.33333C4.2 3.93394 3.8864 3.61111 3.5 3.61111ZM9.8 4.33333C9.8 3.93394 10.1136 3.61111 10.5 3.61111C10.8864 3.61111 11.2 3.93394 11.2 4.33333C11.2 4.73272 10.8864 5.05556 10.5 5.05556C10.1136 5.05556 9.8 4.73272 9.8 4.33333ZM0 9.38889L0 10.8333L14 10.8333L14 9.38889L0 9.38889ZM0 13L0 11.5556L14 11.5556L14 13L0 13Z" transform="translate(1 2)" id="Shape" fill="#1A5DC6" fill-rule="evenodd" stroke="none" />
  </g>
</svg>