<?xml version="1.0" encoding="utf-8"?>
<svg width="24px" height="24px" viewBox="0 0 24 24" version="1.1" xmlns:xlink="http://www.w3.org/1999/xlink" xmlns="http://www.w3.org/2000/svg">
  <desc>Created with Lunacy</desc>
  <g id="Icon/round_limit">
    <path d="M11.999 0L12.001 0C18.6279 0 24 5.37214 24 11.999L24 12.001C24 18.6279 18.6279 24 12.001 24L11.999 24C5.37214 24 0 18.6279 0 12.001L0 11.999C0 5.37214 5.37214 0 11.999 0Z" id="Rectangle" fill="#DFEBFF" stroke="none" />
    <g id="Icons/property_blue" transform="translate(4 4)">
      <path d="M0 5.36667C0 5.36667 2.58333 0 7.91667 0C13.25 0 15.8333 5.36667 15.8333 5.36667C15.8333 5.36667 13.2667 10.7333 7.91667 10.7333C2.56667 10.7333 0 5.36667 0 5.36667ZM3.76666 5.36655C3.76666 7.64989 5.61666 9.51655 7.91666 9.51655C10.2167 9.51655 12.0667 7.66655 12.0667 5.36655C12.0667 3.08322 10.2 1.21655 7.91666 1.21655C5.63333 1.21655 3.76666 3.06655 3.76666 5.36655Z" transform="translate(-1.54543E-13 3)" id="Shape" fill="#1A5DC6" fill-rule="evenodd" stroke="none" />
      <path d="M4.65 1.91667C4 1.91667 3.46667 1.38333 3.46667 0.733333C3.46667 0.533333 3.51667 0.333333 3.61667 0.166667C3.33333 0.0666667 3.01667 0 2.7 0C1.21667 0 0 1.2 0 2.68333C0 4.16667 1.2 5.38333 2.7 5.38333C4.18333 5.38333 5.38333 4.18333 5.38333 2.68333C5.38333 2.36667 5.33333 2.05 5.21667 1.76667C5.06667 1.86667 4.86667 1.91667 4.65 1.91667Z" transform="translate(5.216667 5.683333)" id="Path" fill="#1A5DC6" stroke="none" />
    </g>
  </g>
</svg>