<?xml version="1.0" encoding="UTF-8"?>
<svg width="13px" height="16px" viewBox="0 0 13 16" version="1.1" xmlns="http://www.w3.org/2000/svg" xmlns:xlink="http://www.w3.org/1999/xlink">
    <!-- Generator: sketchtool 54.1 (76490) - https://sketchapp.com -->
    <title>A981DD79-266C-482A-9205-2F96BA832846</title>
    <desc>Created with sketchtool.</desc>
    <g id="02-02-01-Listing-details" stroke="none" stroke-width="1" fill="none" fill-rule="evenodd">
        <g id="02-02-03-04-View-listing---insights_map" transform="translate(-1210.000000, -24.000000)" fill="#666B7C" fill-rule="nonzero">
            <g id="Components/Header-drilldown">
                <g id="Group" transform="translate(1168.000000, 16.000000)">
                    <g id="icons/notification" transform="translate(40.000000, 8.000000)">
                        <path d="M8.5,16 C9.39375,16 10.125,15.2615385 10.125,14.3589744 L6.875,14.3589744 C6.875,15.2615385 7.598125,16 8.5,16 Z M13.375,11.0769231 L13.375,6.97435897 C13.375,4.45538462 12.0425,2.34666667 9.71875,1.78871795 L9.71875,1.23076923 C9.71875,0.54974359 9.174375,0 8.5,0 C7.825625,0 7.28125,0.54974359 7.28125,1.23076923 L7.28125,1.78871795 C4.949375,2.34666667 3.625,4.44717949 3.625,6.97435897 L3.625,11.0769231 L2,12.7179487 L2,13.5384615 L15,13.5384615 L15,12.7179487 L13.375,11.0769231 Z" id="Shape"></path>
                    </g>
                </g>
            </g>
        </g>
    </g>
</svg>